<svg fill="#000000" width="200px" height="200px" viewBox="0 0 480 480" xmlns="http://www.w3.org/2000/svg"><path id="test" d="M296.482 395.294c0 31.144 -25.327 56.471 -56.471 56.471s-56.471 -25.327 -56.471 -56.471zM240.011 56.471c85.609 0 155.294 69.656 155.294 155.294v98.823c0 21.685 8.188 41.477 21.6 56.471H63.089c13.44 -14.993 21.628 -34.786 21.628 -56.471V211.765c0 -85.638 69.656 -155.294 155.294 -155.294m183.53 254.118V211.765c0 -96.424 -74.823 -175.567 -169.412 -182.823V0H225.894v28.941c-94.617 7.256 -169.412 86.4 -169.412 182.823v98.823c0 31.143 -25.327 56.471 -56.471 56.471v28.235h155.294c0 46.701 37.977 84.706 84.706 84.706 46.701 0 84.706 -38.005 84.706 -84.706h155.294v-28.235c-31.143 0 -56.471 -25.327 -56.471 -56.471Z" fill-rule="evenodd"/></svg>