<?xml version="1.0" encoding="UTF-8"?>
<svg id="SvgjsSvg1004" xmlns="http://www.w3.org/2000/svg" viewBox="0 0 128 128">
  <rect width="128" height="128" style="fill: none;"/>
  <g>
    <path id="SvgjsPath1003" d="m120.44,41.1l-22.64,22.9-30.07-30.44c-.98-1-2.33-1.56-3.73-1.56h52.71c1.4,0,2.73.56,3.73,1.56,2.04,2.05,2.06,5.4.05,7.48,0,0-.05.06-.05.06Z" style="fill: #86b110; isolation: isolate; opacity: .9;"/>
    <path id="SvgjsPath1002" d="m97.8,64l-30.09,30.44c-2.06,2.08-5.39,2.08-7.45,0-.98-1-1.55-2.36-1.55-3.78v-53.32c0-1.41.56-2.77,1.55-3.78,2.06-2.08,5.39-2.08,7.45,0l30.09,30.44Z" style="fill: #005434; isolation: isolate; opacity: .9;"/>
    <path id="SvgjsPath1001" d="m58.71,37.34v53.32c0,1.41.56,2.77,1.55,3.78L7.54,41.1c-2.04-2.05-2.06-5.4-.05-7.48l.05-.06c1-1,2.33-1.56,3.73-1.56h52.71c-1.4,0-2.73.56-3.73,1.56-.98.99-1.55,2.34-1.55,3.78Z" style="fill: #409d76; isolation: isolate; opacity: .9;"/>
    <path id="SvgjsPath1000" d="m120.44,94.44c-.98,1-2.33,1.56-3.73,1.56h-52.71c1.4,0,2.73-.56,3.73-1.56l30.09-30.44,22.64,22.9c2.04,2.05,2.06,5.4.05,7.48l-.05.06h-.02Z" style="fill: #00a0ba; isolation: isolate; opacity: .9;"/>
  </g>
</svg>