<svg id="VCS_Logo_Color_Mobile" data-name="VCS Logo Color Mobile" xmlns="http://www.w3.org/2000/svg" viewBox="0 0 68 39">
  <path d="M65.15,6.98l-12.49,12.52L36.06,2.85c-.55-.55-1.29-.86-2.06-.85h29.09c.77,0,1.51,.31,2.06,.85,1.12,1.12,1.14,2.95,.03,4.09l-.03,.03Zm-12.49,12.52l-16.6,16.65c-1.14,1.14-2.97,1.14-4.11,0-.55-.54-.85-1.29-.85-2.06V4.92c0-.78,.31-1.52,.85-2.06,1.14-1.14,2.97-1.14,4.11,0l16.6,16.65ZM31.09,4.92v29.16c0,.78,.31,1.52,.85,2.06L2.85,6.98c-1.12-1.12-1.14-2.95-.03-4.09l.03-.03c.55-.55,1.29-.86,2.06-.85h29.09c-.77,0-1.51,.31-2.06,.85-.55,.54-.86,1.29-.86,2.06Zm34.06,31.23c-.55,.55-1.29,.86-2.06,.85h-29.09c.77,0,1.51-.31,2.06-.85l16.6-16.64,12.49,12.52c1.12,1.12,1.14,2.95,.03,4.09l-.03,.03Z" style="fill: #fff; isolation: isolate; opacity: .9; stroke: #fff; stroke-miterlimit: 10; stroke-width: 4px;"/>
  <g>
    <path id="Path_274" d="M64.99,7.19l-12.43,12.31L36.05,3.14c-.54-.54-1.28-.84-2.05-.84h28.94c.77,0,1.5,.3,2.05,.84,1.12,1.1,1.13,2.9,.03,4.02l-.03,.03Z" style="fill: #86b110; isolation: isolate; opacity: .9;"/>
    <path id="Path_273" d="M52.56,19.5l-16.52,16.36c-1.13,1.12-2.96,1.12-4.09,0-.54-.54-.85-1.27-.85-2.03V5.17c0-.76,.31-1.49,.85-2.03,1.13-1.12,2.96-1.12,4.09,0l16.52,16.36Z" style="fill: #005434; isolation: isolate; opacity: .9;"/>
    <path id="Path_272" d="M31.1,5.17v28.66c0,.76,.31,1.49,.85,2.03L3.01,7.19c-1.12-1.1-1.13-2.9-.03-4.02l.03-.03c.55-.54,1.28-.84,2.05-.84h28.94c-.77,0-1.5,.3-2.05,.84-.54,.53-.85,1.26-.85,2.03Z" style="fill: #409d76; isolation: isolate; opacity: .9;"/>
    <path id="Path_271" d="M64.99,35.86c-.54,.54-1.28,.84-2.05,.84h-28.94c.77,0,1.5-.3,2.05-.84l16.52-16.36,12.43,12.31c1.12,1.1,1.13,2.9,.03,4.02l-.03,.03Z" style="fill: #00a0ba; isolation: isolate; opacity: .9;"/>
  </g>
</svg>